<mxfile host="app.diagrams.net" modified="2022-01-05T18:06:16.620Z" agent="5.0 (Windows NT 10.0; Win64; x64) AppleWebKit/537.36 (KHTML, like Gecko) Chrome/96.0.4664.110 Safari/537.36" etag="477Ue7Pw1oCOxfO_A0M8" version="16.1.4" type="github">
  <diagram id="UeMNcBmSJwI6wQPhR4Q6" name="Page-1">
    <mxGraphModel dx="786" dy="445" grid="1" gridSize="10" guides="1" tooltips="1" connect="1" arrows="1" fold="1" page="1" pageScale="1" pageWidth="850" pageHeight="1100" math="0" shadow="0">
      <root>
        <mxCell id="0" />
        <mxCell id="1" parent="0" />
        <mxCell id="BOoTvwE34AEXeWANMqtE-3" value="" style="edgeStyle=orthogonalEdgeStyle;rounded=0;orthogonalLoop=1;jettySize=auto;html=1;" edge="1" parent="1" source="BOoTvwE34AEXeWANMqtE-1" target="BOoTvwE34AEXeWANMqtE-2">
          <mxGeometry relative="1" as="geometry" />
        </mxCell>
        <mxCell id="BOoTvwE34AEXeWANMqtE-1" value="Find chemical inventory" style="ellipse;whiteSpace=wrap;html=1;" vertex="1" parent="1">
          <mxGeometry x="40" y="160" width="120" height="80" as="geometry" />
        </mxCell>
        <mxCell id="BOoTvwE34AEXeWANMqtE-5" value="" style="edgeStyle=orthogonalEdgeStyle;rounded=0;orthogonalLoop=1;jettySize=auto;html=1;" edge="1" parent="1" source="BOoTvwE34AEXeWANMqtE-2" target="BOoTvwE34AEXeWANMqtE-4">
          <mxGeometry relative="1" as="geometry" />
        </mxCell>
        <mxCell id="BOoTvwE34AEXeWANMqtE-2" value="Search Chemicals" style="whiteSpace=wrap;html=1;" vertex="1" parent="1">
          <mxGeometry x="240" y="170" width="120" height="60" as="geometry" />
        </mxCell>
        <mxCell id="BOoTvwE34AEXeWANMqtE-4" value="" style="whiteSpace=wrap;html=1;" vertex="1" parent="1">
          <mxGeometry x="440" y="170" width="120" height="60" as="geometry" />
        </mxCell>
      </root>
    </mxGraphModel>
  </diagram>
</mxfile>
